<?xml version="1.0" encoding="UTF-8"?>
<svg width="128" height="128" viewBox="0 0 128 128" fill="none" xmlns="http://www.w3.org/2000/svg">
  <defs>
    <linearGradient id="bg" x1="18" y1="12" x2="110" y2="116" gradientUnits="userSpaceOnUse">
      <stop stop-color="#0A84FF"/>
      <stop offset="1" stop-color="#5E5CE6"/>
    </linearGradient>
    <filter id="soft" x="-20%" y="-20%" width="140%" height="140%">
      <feDropShadow dx="0" dy="4" stdDeviation="4" flood-color="#0A84FF" flood-opacity="0.28"/>
    </filter>
  </defs>
  <rect x="8" y="8" width="112" height="112" rx="28" fill="url(#bg)" filter="url(#soft)"/>
  <path d="M40 30H88V96L64 84L40 96V30Z" fill="white" fill-opacity="0.96"/>
  <path d="M64 42L52 58L64 54L76 58L64 42Z" fill="#0A84FF"/>
  <circle cx="64" cy="58" r="5.5" fill="#0A84FF"/>
  <circle cx="64" cy="58" r="2.3" fill="white"/>
  <circle cx="52" cy="68" r="4" fill="#5E5CE6"/>
  <circle cx="76" cy="68" r="4" fill="#5E5CE6"/>
  <circle cx="64" cy="46" r="4" fill="#5E5CE6"/>
  <path d="M64 50.5V54.5M52.8 65.2L60.5 59.5M75.2 65.2L67.5 59.5" stroke="#0A84FF" stroke-width="2.2" stroke-linecap="round"/>
</svg>
